<svg xmlns="http://www.w3.org/2000/svg" xmlns:xlink="http://www.w3.org/1999/xlink" xmlns:serif="http://www.serif.com/"
  width="38" height="30" viewBox="0 0 38 30" version="1.1" xml:space="preserve"
  style="fill-rule:evenodd;clip-rule:evenodd;stroke-linejoin:round;stroke-miterlimit:2;">
  <g>
    <clipPath id="_clip1">
      <rect x="0" y="-0.018" width="140" height="30.018"></rect>
    </clipPath>
    <g clip-path="url(#_clip1)">
      <path
        d="M37.413,12.315c-0.933,-0.627 -3.382,-0.896 -5.163,-0.415c-0.097,-1.774 -1.012,-3.27 -2.685,-4.573l-0.619,-0.416l-0.414,0.624c-0.811,1.232 -1.153,2.873 -1.032,4.366c0.095,0.92 0.415,1.953 1.032,2.703c-2.318,1.345 -4.455,1.039 -13.919,1.039l-14.61,0c-0.042,2.137 0.302,6.248 2.915,9.593c0.289,0.37 0.604,0.727 0.948,1.072c2.126,2.128 5.336,3.689 10.138,3.693c7.325,0.007 13.601,-3.953 17.419,-13.527c1.257,0.02 4.572,0.225 6.195,-2.911c0.039,-0.052 0.413,-0.831 0.413,-0.831l-0.618,-0.415l0,-0.002Zm-27.875,-1.953l-4.108,0l-0,4.108l4.108,0l0,-4.108Zm5.308,0l-4.108,0l-0,4.108l4.108,0l0,-4.108Zm5.308,0l-4.108,0l-0,4.108l4.108,0l0,-4.108Zm5.308,0l-4.108,0l-0,4.108l4.108,0l0,-4.108Zm-21.232,0l-4.108,0l-0,4.108l4.108,0l0,-4.108Zm5.308,-5.19l-4.108,-0l-0,4.108l4.108,0l0,-4.108Zm5.308,-0l-4.108,-0l-0,4.108l4.108,0l0,-4.108Zm5.308,-0l-4.108,-0l-0,4.108l4.108,0l0,-4.108Zm0,-5.19l-4.108,0l-0,4.109l4.108,-0l0,-4.109Z"
        style="fill:var(--iconColor, #00153c);fill-rule:nonzero;"></path>
    </g>
  </g>
</svg>